<svg xmlns="http://www.w3.org/2000/svg" style="display: none;"><symbol id="menu-1" viewBox="0 0 129 129"><title>menu-1</title><path d="m91.4,33.5h-53.8c-2.3,0-4.1,1.8-4.1,4.1 0,2.3 1.8,4.1 4.1,4.1h53.9c2.3,0 4.1-1.8 4.1-4.1-0.1-2.3-1.9-4.1-4.2-4.1z"/><path d="m91.4,87.4h-53.8c-2.3,0-4.1,1.8-4.1,4.1 0,2.3 1.8,4.1 4.1,4.1h53.9c2.3,0 4.1-1.8 4.1-4.1-0.1-2.3-1.9-4.1-4.2-4.1z"/><path d="m91.4,60.4h-53.8c-2.3,0-4.1,1.8-4.1,4.1 0,2.3 1.8,4.1 4.1,4.1h53.9c2.3,0 4.1-1.8 4.1-4.1-0.1-2.3-1.9-4.1-4.2-4.1z"/></symbol><symbol id="menu-2" viewBox="0 0 54 54"><title>menu-2</title><circle style="fill:#38454F;" cx="27" cy="27" r="27"/><line style="fill:none;stroke:#FFFFFF;stroke-width:2;stroke-linecap:round;stroke-miterlimit:10;" x1="15" y1="16" x2="39" y2="16"/><line style="fill:none;stroke:#FFFFFF;stroke-width:2;stroke-linecap:round;stroke-miterlimit:10;" x1="15" y1="27" x2="39" y2="27"/><line style="fill:none;stroke:#FFFFFF;stroke-width:2;stroke-linecap:round;stroke-miterlimit:10;" x1="15" y1="38" x2="39" y2="38"/></symbol><symbol id="menu" viewBox="0 0 53 53"><title>menu</title><path d="M2,13.5h49c1.104,0,2-0.896,2-2s-0.896-2-2-2H2c-1.104,0-2,0.896-2,2S0.896,13.5,2,13.5z"/><path d="M2,28.5h49c1.104,0,2-0.896,2-2s-0.896-2-2-2H2c-1.104,0-2,0.896-2,2S0.896,28.5,2,28.5z"/><path d="M2,43.5h49c1.104,0,2-0.896,2-2s-0.896-2-2-2H2c-1.104,0-2,0.896-2,2S0.896,43.5,2,43.5z"/></symbol></svg>